# xmcd
#
# Track frame offsets: 
#        150
#        12585
#        24342
#        41465
#        59622
#        85985
#        107280
#        122602
#        151877
#        173415
#
# Disc length: 2560 seconds
#
# Revision: 3
# Processed by: cddbd v1.5.2PL0 Copyright (c) Steve Scherf et al.
# Submitted via: ExactAudioCopy v0.99pb5
#
DISCID=6c09fe0a
DTITLE=Fillmore Slim - Other Side of the Road
DYEAR=2000
DGENRE=Blues
TTITLE0=Let's Talk About Love
TTITLE1=Dial 911
TTITLE2=Kicked Out
TTITLE3=The Girl Can't Cook
TTITLE4=Down on the Farm
TTITLE5=Annabelle
TTITLE6=Pretty Baby
TTITLE7=Other Sideide of the Road
TTITLE8=Louisiana Scat
TTITLE9=Blue Monday
EXTD=
EXTT0=
EXTT1=
EXTT2=
EXTT3=
EXTT4=
EXTT5=
EXTT6=
EXTT7=
EXTT8=
EXTT9=
PLAYORDER=
